{
  "asset": {
    "generator": "glTF-Transform v4.2.1",
    "version": "2.0"
  },
  "accessors": [
    {
      "type": "VEC3",
      "componentType": 5126,
      "count": 130,
      "max": [
        120,
        39,
        39
      ],
      "min": [
        -120,
        -39,
        -39
      ],
      "bufferView": 0,
      "byteOffset": 0
    },
    {
      "type": "VEC4",
      "componentType": 5121,
      "count": 130,
      "normalized": true,
      "bufferView": 0,
      "byteOffset": 12
    },
    {
      "type": "SCALAR",
      "componentType": 5125,
      "count": 768,
      "bufferView": 1,
      "byteOffset": 0
    },
    {
      "type": "SCALAR",
      "componentType": 5125,
      "count": 36,
      "bufferView": 1,
      "byteOffset": 3072
    },
    {
      "type": "SCALAR",
      "componentType": 5125,
      "count": 384,
      "bufferView": 1,
      "byteOffset": 3216
    },
    {
      "type": "VEC3",
      "componentType": 5126,
      "count": 130,
      "max": [
        -109,
        42.5,
        42.5
      ],
      "min": [
        -121,
        -42.5,
        -42.5
      ],
      "bufferView": 2,
      "byteOffset": 0
    },
    {
      "type": "VEC3",
      "componentType": 5126,
      "count": 130,
      "max": [
        121,
        42.5,
        42.5
      ],
      "min": [
        109,
        -42.5,
        -42.5
      ],
      "bufferView": 3,
      "byteOffset": 0
    },
    {
      "type": "VEC3",
      "componentType": 5126,
      "count": 8,
      "max": [
        65,
        84,
        30
      ],
      "min": [
        -65,
        39,
        -30
      ],
      "bufferView": 4,
      "byteOffset": 0
    },
    {
      "type": "VEC4",
      "componentType": 5121,
      "count": 8,
      "normalized": true,
      "bufferView": 4,
      "byteOffset": 12
    },
    {
      "type": "VEC3",
      "componentType": 5126,
      "count": 8,
      "max": [
        15,
        86,
        12.5
      ],
      "min": [
        -35,
        84,
        -12.5
      ],
      "bufferView": 5,
      "byteOffset": 0
    },
    {
      "type": "VEC4",
      "componentType": 5121,
      "count": 8,
      "normalized": true,
      "bufferView": 5,
      "byteOffset": 12
    },
    {
      "type": "VEC3",
      "componentType": 5126,
      "count": 8,
      "max": [
        95,
        79,
        15
      ],
      "min": [
        65,
        39,
        -15
      ],
      "bufferView": 6,
      "byteOffset": 0
    },
    {
      "type": "VEC3",
      "componentType": 5126,
      "count": 66,
      "max": [
        65,
        -31,
        18
      ],
      "min": [
        -65,
        -67,
        -18
      ],
      "bufferView": 7,
      "byteOffset": 0
    },
    {
      "type": "VEC4",
      "componentType": 5121,
      "count": 66,
      "normalized": true,
      "bufferView": 7,
      "byteOffset": 12
    },
    {
      "type": "VEC3",
      "componentType": 5126,
      "count": 8,
      "max": [
        35,
        15,
        49
      ],
      "min": [
        -35,
        -15,
        39
      ],
      "bufferView": 8,
      "byteOffset": 0
    },
    {
      "type": "VEC4",
      "componentType": 5121,
      "count": 8,
      "normalized": true,
      "bufferView": 8,
      "byteOffset": 12
    },
    {
      "type": "VEC3",
      "componentType": 5126,
      "count": 8,
      "max": [
        -2.5,
        9,
        50
      ],
      "min": [
        -27.5,
        -9,
        48
      ],
      "bufferView": 9,
      "byteOffset": 0
    },
    {
      "type": "VEC4",
      "componentType": 5121,
      "count": 8,
      "normalized": true,
      "bufferView": 9,
      "byteOffset": 12
    },
    {
      "type": "VEC3",
      "componentType": 5126,
      "count": 8,
      "max": [
        27.5,
        9,
        50
      ],
      "min": [
        2.5,
        -9,
        48
      ],
      "bufferView": 10,
      "byteOffset": 0
    }
  ],
  "bufferViews": [
    {
      "buffer": 0,
      "byteOffset": 0,
      "byteLength": 2080,
      "byteStride": 16,
      "target": 34962
    },
    {
      "buffer": 0,
      "byteOffset": 2080,
      "byteLength": 4752,
      "target": 34963
    },
    {
      "buffer": 0,
      "byteOffset": 6832,
      "byteLength": 1560,
      "byteStride": 12,
      "target": 34962
    },
    {
      "buffer": 0,
      "byteOffset": 8392,
      "byteLength": 1560,
      "byteStride": 12,
      "target": 34962
    },
    {
      "buffer": 0,
      "byteOffset": 9952,
      "byteLength": 128,
      "byteStride": 16,
      "target": 34962
    },
    {
      "buffer": 0,
      "byteOffset": 10080,
      "byteLength": 128,
      "byteStride": 16,
      "target": 34962
    },
    {
      "buffer": 0,
      "byteOffset": 10208,
      "byteLength": 96,
      "byteStride": 12,
      "target": 34962
    },
    {
      "buffer": 0,
      "byteOffset": 10304,
      "byteLength": 1056,
      "byteStride": 16,
      "target": 34962
    },
    {
      "buffer": 0,
      "byteOffset": 11360,
      "byteLength": 128,
      "byteStride": 16,
      "target": 34962
    },
    {
      "buffer": 0,
      "byteOffset": 11488,
      "byteLength": 128,
      "byteStride": 16,
      "target": 34962
    },
    {
      "buffer": 0,
      "byteOffset": 11616,
      "byteLength": 96,
      "byteStride": 12,
      "target": 34962
    }
  ],
  "buffers": [
    {
      "uri": "buffer.bin",
      "byteLength": 11712
    }
  ],
  "materials": [
    {
      "pbrMetallicRoughness": {}
    }
  ],
  "meshes": [
    {
      "primitives": [
        {
          "attributes": {
            "POSITION": 0,
            "COLOR_0": 1
          },
          "mode": 4,
          "material": 0,
          "indices": 2
        }
      ]
    },
    {
      "primitives": [
        {
          "attributes": {
            "COLOR_0": 1,
            "POSITION": 5
          },
          "mode": 4,
          "material": 0,
          "indices": 2
        }
      ]
    },
    {
      "primitives": [
        {
          "attributes": {
            "COLOR_0": 1,
            "POSITION": 6
          },
          "mode": 4,
          "material": 0,
          "indices": 2
        }
      ]
    },
    {
      "primitives": [
        {
          "attributes": {
            "POSITION": 7,
            "COLOR_0": 8
          },
          "mode": 4,
          "material": 0,
          "indices": 3
        }
      ]
    },
    {
      "primitives": [
        {
          "attributes": {
            "POSITION": 9,
            "COLOR_0": 10
          },
          "mode": 4,
          "material": 0,
          "indices": 3
        }
      ]
    },
    {
      "primitives": [
        {
          "attributes": {
            "COLOR_0": 8,
            "POSITION": 11
          },
          "mode": 4,
          "material": 0,
          "indices": 3
        }
      ]
    },
    {
      "primitives": [
        {
          "attributes": {
            "POSITION": 12,
            "COLOR_0": 13
          },
          "mode": 4,
          "material": 0,
          "indices": 4
        }
      ]
    },
    {
      "primitives": [
        {
          "attributes": {
            "POSITION": 14,
            "COLOR_0": 15
          },
          "mode": 4,
          "material": 0,
          "indices": 3
        }
      ]
    },
    {
      "primitives": [
        {
          "attributes": {
            "POSITION": 16,
            "COLOR_0": 17
          },
          "mode": 4,
          "material": 0,
          "indices": 3
        }
      ]
    },
    {
      "primitives": [
        {
          "attributes": {
            "COLOR_0": 17,
            "POSITION": 18
          },
          "mode": 4,
          "material": 0,
          "indices": 3
        }
      ]
    }
  ],
  "nodes": [
    {
      "name": "AuxScene",
      "children": [
        1
      ]
    },
    {
      "children": [
        2
      ]
    },
    {
      "name": "world",
      "extras": {
        "name": "world"
      },
      "children": [
        3,
        4,
        5,
        6,
        7,
        8,
        9,
        10,
        11,
        12
      ]
    },
    {
      "name": "geometry_0",
      "extras": {
        "name": "geometry_0",
        "shape": "cylinder",
        "height": 240,
        "radius": 39,
        "processed": true
      },
      "mesh": 0
    },
    {
      "name": "geometry_1",
      "extras": {
        "name": "geometry_1",
        "shape": "cylinder",
        "height": 12,
        "radius": 42.5,
        "processed": true
      },
      "mesh": 1
    },
    {
      "name": "geometry_2",
      "extras": {
        "name": "geometry_2",
        "shape": "cylinder",
        "height": 12,
        "radius": 42.5,
        "processed": true
      },
      "mesh": 2
    },
    {
      "name": "geometry_3",
      "extras": {
        "name": "geometry_3",
        "shape": "box",
        "extents": [
          130,
          45,
          60
        ]
      },
      "mesh": 3
    },
    {
      "name": "geometry_4",
      "extras": {
        "name": "geometry_4",
        "shape": "box",
        "extents": [
          50,
          2,
          25
        ]
      },
      "mesh": 4
    },
    {
      "name": "geometry_5",
      "extras": {
        "name": "geometry_5",
        "shape": "box",
        "extents": [
          30,
          40,
          30
        ]
      },
      "mesh": 5
    },
    {
      "name": "geometry_6",
      "extras": {
        "name": "geometry_6",
        "shape": "cylinder",
        "height": 130,
        "radius": 18,
        "processed": true
      },
      "mesh": 6
    },
    {
      "name": "geometry_7",
      "extras": {
        "name": "geometry_7",
        "shape": "box",
        "extents": [
          70,
          30,
          10
        ]
      },
      "mesh": 7
    },
    {
      "name": "geometry_8",
      "extras": {
        "name": "geometry_8",
        "shape": "box",
        "extents": [
          25,
          18,
          2
        ]
      },
      "mesh": 8
    },
    {
      "name": "geometry_9",
      "extras": {
        "name": "geometry_9",
        "shape": "box",
        "extents": [
          25,
          18,
          2
        ]
      },
      "mesh": 9
    }
  ],
  "scenes": [
    {
      "name": "AuxScene",
      "nodes": [
        0
      ]
    }
  ],
  "scene": 0
}